# xmcd
#
# Track frame offsets:
#	150
#	12887
#	26892
#	44167
#	56687
#	70700
#	84237
#	98362
#	109967
#	121530
#	133317
#	145800
#	155897
#	170995
#	190360
#	204560
#
# Disc length: 2873 seconds
#
# Revision: 3
# Processed by: cddbd v1.5.2PL0 Copyright (c) Steve Scherf et al.
# Submitted via: audiograbber 1.83.01
#
DISCID=e80b3710
DTITLE=Bruce Low - Seine schönsten Lieder
DYEAR=1990
DGENRE=Folk
TTITLE0=Du hast viele Freunde im Leben
TTITLE1=Das alte Haus von Rocky Docky
TTITLE2=Drunten am Ufer
TTITLE3=Oh, My Darling Caroline
TTITLE4=Das hat Dir das Leben gegeben
TTITLE5=Es hängt ein Pferdehalfter an der Wand
TTITLE6=Sloop John B.
TTITLE7=Das Haus in New Orleans
TTITLE8=Noah
TTITLE9=Sieben Dinge braucht der Cowboy
TTITLE10=Goodbye Lucille
TTITLE11=Tabak und Rum
TTITLE12=Das Kartenspiel (Deck of Cards)
TTITLE13=Die Legende von Babylon (Rivers of Babylon)
TTITLE14=Ein Kerl wie Old Smoke
TTITLE15=Hier bin ich Zuhaus
EXTD=YEAR: 1990
EXTT0=
EXTT1=
EXTT2=
EXTT3=
EXTT4=
EXTT5=
EXTT6=
EXTT7=
EXTT8=
EXTT9=
EXTT10=
EXTT11=
EXTT12=
EXTT13=
EXTT14=
EXTT15=
PLAYORDER=
